<?xml version="1.0" encoding="UTF-8" standalone="no"?>
<!DOCTYPE svg PUBLIC "-//W3C//DTD SVG 1.1//EN"
 "http://www.w3.org/Graphics/SVG/1.1/DTD/svg11.dtd">
<!-- Generated by graphviz version 12.1.2 (20240928.0832)
 -->
<!-- Title: public.alumnos_grupos Pages: 1 -->
<svg width="1278pt" height="756pt"
 viewBox="0.00 0.00 1277.97 756.00" xmlns="http://www.w3.org/2000/svg" xmlns:xlink="http://www.w3.org/1999/xlink">
<g id="graph0" class="graph" transform="scale(1 1) rotate(0) translate(4 752)">
<title>public.alumnos_grupos</title>
<polygon fill="white" stroke="none" points="-4,4 -4,-752 1273.97,-752 1273.97,4 -4,4"/>
<!-- public.alumnos_grupos -->
<g id="node1" class="node">
<title>public.alumnos_grupos</title>
<polygon fill="#efefef" stroke="none" points="487.89,-666.2 487.89,-701.8 794.87,-701.8 794.87,-666.2 487.89,-666.2"/>
<polygon fill="none" stroke="black" points="487.89,-666.2 487.89,-701.8 794.87,-701.8 794.87,-666.2 487.89,-666.2"/>
<text text-anchor="start" x="494.89" y="-679.6" font-family="Arial Bold" font-size="18.00">public.alumnos_grupos</text>
<text text-anchor="start" x="663.38" y="-679.6" font-family="Arial" font-size="14.00">    </text>
<text text-anchor="start" x="694.49" y="-679.6" font-family="Arial" font-size="14.00" fill="#666666">[BASE TABLE]</text>
<polygon fill="none" stroke="black" points="487.89,-635.4 487.89,-666.2 794.87,-666.2 794.87,-635.4 487.89,-635.4"/>
<text text-anchor="start" x="494.89" y="-647.6" font-family="Arial" font-size="14.00">id </text>
<text text-anchor="start" x="509.68" y="-647.6" font-family="Arial" font-size="14.00" fill="#666666">[integer]</text>
<polygon fill="none" stroke="black" points="487.89,-604.6 487.89,-635.4 794.87,-635.4 794.87,-604.6 487.89,-604.6"/>
<text text-anchor="start" x="494.89" y="-616.8" font-family="Arial" font-size="14.00">alumno_id </text>
<text text-anchor="start" x="563.38" y="-616.8" font-family="Arial" font-size="14.00" fill="#666666">[integer]</text>
<polygon fill="none" stroke="black" points="487.89,-573.8 487.89,-604.6 794.87,-604.6 794.87,-573.8 487.89,-573.8"/>
<text text-anchor="start" x="494.89" y="-586" font-family="Arial" font-size="14.00">grupo_id </text>
<text text-anchor="start" x="553.27" y="-586" font-family="Arial" font-size="14.00" fill="#666666">[integer]</text>
<polygon fill="none" stroke="black" points="487.89,-543 487.89,-573.8 794.87,-573.8 794.87,-543 487.89,-543"/>
<text text-anchor="start" x="494.89" y="-555.2" font-family="Arial" font-size="14.00">is_active </text>
<text text-anchor="start" x="553.25" y="-555.2" font-family="Arial" font-size="14.00" fill="#666666">[boolean]</text>
<polygon fill="none" stroke="black" points="487.89,-512.2 487.89,-543 794.87,-543 794.87,-512.2 487.89,-512.2"/>
<text text-anchor="start" x="494.89" y="-524.4" font-family="Arial" font-size="14.00">created_at </text>
<text text-anchor="start" x="564.94" y="-524.4" font-family="Arial" font-size="14.00" fill="#666666">[timestamp with time zone]</text>
<polygon fill="none" stroke="black" stroke-width="3" points="486.39,-510.7 486.39,-703.3 796.37,-703.3 796.37,-510.7 486.39,-510.7"/>
</g>
<!-- public.alumnos -->
<g id="node2" class="node">
<title>public.alumnos</title>
<polygon fill="#efefef" stroke="none" points="335.54,-351.2 335.54,-386.8 589.22,-386.8 589.22,-351.2 335.54,-351.2"/>
<polygon fill="none" stroke="black" points="335.54,-351.2 335.54,-386.8 589.22,-386.8 589.22,-351.2 335.54,-351.2"/>
<text text-anchor="start" x="344.89" y="-364.6" font-family="Arial Bold" font-size="18.00">public.alumnos</text>
<text text-anchor="start" x="455.38" y="-364.6" font-family="Arial" font-size="14.00">    </text>
<text text-anchor="start" x="486.49" y="-364.6" font-family="Arial" font-size="14.00" fill="#666666">[BASE TABLE]</text>
<polygon fill="none" stroke="black" points="335.54,-320.4 335.54,-351.2 589.22,-351.2 589.22,-320.4 335.54,-320.4"/>
<text text-anchor="start" x="342.54" y="-332.6" font-family="Arial" font-size="14.00">id </text>
<text text-anchor="start" x="357.32" y="-332.6" font-family="Arial" font-size="14.00" fill="#666666">[integer]</text>
<polygon fill="none" stroke="black" points="335.54,-289.6 335.54,-320.4 589.22,-320.4 589.22,-289.6 335.54,-289.6"/>
<text text-anchor="start" x="342.54" y="-301.8" font-family="Arial" font-size="14.00">nombres </text>
<text text-anchor="start" x="400.9" y="-301.8" font-family="Arial" font-size="14.00" fill="#666666">[varchar(80)]</text>
<polygon fill="none" stroke="black" points="335.54,-258.8 335.54,-289.6 589.22,-289.6 589.22,-258.8 335.54,-258.8"/>
<text text-anchor="start" x="342.54" y="-271" font-family="Arial" font-size="14.00">primer_apellido </text>
<text text-anchor="start" x="442.14" y="-271" font-family="Arial" font-size="14.00" fill="#666666">[varchar(80)]</text>
<polygon fill="none" stroke="black" points="335.54,-228 335.54,-258.8 589.22,-258.8 589.22,-228 335.54,-228"/>
<text text-anchor="start" x="342.54" y="-240.2" font-family="Arial" font-size="14.00">segundo_apellido </text>
<text text-anchor="start" x="456.19" y="-240.2" font-family="Arial" font-size="14.00" fill="#666666">[varchar(80)]</text>
<polygon fill="none" stroke="black" points="335.54,-197.2 335.54,-228 589.22,-228 589.22,-197.2 335.54,-197.2"/>
<text text-anchor="start" x="342.54" y="-209.4" font-family="Arial" font-size="14.00">curp </text>
<text text-anchor="start" x="373.66" y="-209.4" font-family="Arial" font-size="14.00" fill="#666666">[character(18)]</text>
<polygon fill="none" stroke="black" points="335.54,-166.4 335.54,-197.2 589.22,-197.2 589.22,-166.4 335.54,-166.4"/>
<text text-anchor="start" x="342.54" y="-178.6" font-family="Arial" font-size="14.00">correo_institucional </text>
<text text-anchor="start" x="467.05" y="-178.6" font-family="Arial" font-size="14.00" fill="#666666">[varchar(120)]</text>
<polygon fill="none" stroke="black" points="335.54,-135.6 335.54,-166.4 589.22,-166.4 589.22,-135.6 335.54,-135.6"/>
<text text-anchor="start" x="342.54" y="-147.8" font-family="Arial" font-size="14.00">estatus_id </text>
<text text-anchor="start" x="410.25" y="-147.8" font-family="Arial" font-size="14.00" fill="#666666">[integer]</text>
<polygon fill="none" stroke="black" points="335.54,-104.8 335.54,-135.6 589.22,-135.6 589.22,-104.8 335.54,-104.8"/>
<text text-anchor="start" x="342.54" y="-117" font-family="Arial" font-size="14.00">is_active </text>
<text text-anchor="start" x="400.9" y="-117" font-family="Arial" font-size="14.00" fill="#666666">[boolean]</text>
<polygon fill="none" stroke="black" points="335.54,-74 335.54,-104.8 589.22,-104.8 589.22,-74 335.54,-74"/>
<text text-anchor="start" x="342.54" y="-86.2" font-family="Arial" font-size="14.00">created_at </text>
<text text-anchor="start" x="412.59" y="-86.2" font-family="Arial" font-size="14.00" fill="#666666">[timestamp with time zone]</text>
<polygon fill="none" stroke="black" points="335.54,-43.2 335.54,-74 589.22,-74 589.22,-43.2 335.54,-43.2"/>
<text text-anchor="start" x="342.54" y="-55.4" font-family="Arial" font-size="14.00">updated_at </text>
<text text-anchor="start" x="416.5" y="-55.4" font-family="Arial" font-size="14.00" fill="#666666">[timestamp with time zone]</text>
</g>
<!-- public.alumnos_grupos&#45;&gt;public.alumnos -->
<g id="edge1" class="edge">
<title>public.alumnos_grupos:alumno_id&#45;&gt;public.alumnos:id</title>
<path fill="none" stroke="black" d="M476.53,-619.14C421.73,-609.38 450.4,-518.74 487.89,-466 515.58,-427.05 561.45,-468.9 589.22,-430 613.55,-395.92 632.09,-335.8 590.22,-335.8"/>
<polygon fill="black" stroke="black" points="476.59,-619.15 486.19,-624.46 481.91,-619.59 486.22,-619.94 486.22,-619.94 486.22,-619.94 481.91,-619.59 486.93,-615.49 476.59,-619.15"/>
<text text-anchor="start" x="7" y="-630" font-family="Arial" font-size="10.00">FOREIGN KEY (alumno_id) REFERENCES alumnos(id) ON UPDATE CASCADE ON DELETE CASCADE</text>
</g>
<!-- public.grupos -->
<g id="node3" class="node">
<title>public.grupos</title>
<polygon fill="#efefef" stroke="none" points="693.54,-320.4 693.54,-356 947.22,-356 947.22,-320.4 693.54,-320.4"/>
<polygon fill="none" stroke="black" points="693.54,-320.4 693.54,-356 947.22,-356 947.22,-320.4 693.54,-320.4"/>
<text text-anchor="start" x="708.89" y="-333.8" font-family="Arial Bold" font-size="18.00">public.grupos</text>
<text text-anchor="start" x="807.38" y="-333.8" font-family="Arial" font-size="14.00">    </text>
<text text-anchor="start" x="838.5" y="-333.8" font-family="Arial" font-size="14.00" fill="#666666">[BASE TABLE]</text>
<polygon fill="none" stroke="black" points="693.54,-289.6 693.54,-320.4 947.22,-320.4 947.22,-289.6 693.54,-289.6"/>
<text text-anchor="start" x="700.54" y="-301.8" font-family="Arial" font-size="14.00">id </text>
<text text-anchor="start" x="715.32" y="-301.8" font-family="Arial" font-size="14.00" fill="#666666">[integer]</text>
<polygon fill="none" stroke="black" points="693.54,-258.8 693.54,-289.6 947.22,-289.6 947.22,-258.8 693.54,-258.8"/>
<text text-anchor="start" x="700.54" y="-271" font-family="Arial" font-size="14.00">clave </text>
<text text-anchor="start" x="737.11" y="-271" font-family="Arial" font-size="14.00" fill="#666666">[varchar(20)]</text>
<polygon fill="none" stroke="black" points="693.54,-228 693.54,-258.8 947.22,-258.8 947.22,-228 693.54,-228"/>
<text text-anchor="start" x="700.54" y="-240.2" font-family="Arial" font-size="14.00">nombre </text>
<text text-anchor="start" x="751.9" y="-240.2" font-family="Arial" font-size="14.00" fill="#666666">[varchar(120)]</text>
<polygon fill="none" stroke="black" points="693.54,-197.2 693.54,-228 947.22,-228 947.22,-197.2 693.54,-197.2"/>
<text text-anchor="start" x="700.54" y="-209.4" font-family="Arial" font-size="14.00">plan_estudio_id </text>
<text text-anchor="start" x="802.51" y="-209.4" font-family="Arial" font-size="14.00" fill="#666666">[integer]</text>
<polygon fill="none" stroke="black" points="693.54,-166.4 693.54,-197.2 947.22,-197.2 947.22,-166.4 693.54,-166.4"/>
<text text-anchor="start" x="700.54" y="-178.6" font-family="Arial" font-size="14.00">plantel_id </text>
<text text-anchor="start" x="764.36" y="-178.6" font-family="Arial" font-size="14.00" fill="#666666">[integer]</text>
<polygon fill="none" stroke="black" points="693.54,-135.6 693.54,-166.4 947.22,-166.4 947.22,-135.6 693.54,-135.6"/>
<text text-anchor="start" x="700.54" y="-147.8" font-family="Arial" font-size="14.00">is_active </text>
<text text-anchor="start" x="758.9" y="-147.8" font-family="Arial" font-size="14.00" fill="#666666">[boolean]</text>
<polygon fill="none" stroke="black" points="693.54,-104.8 693.54,-135.6 947.22,-135.6 947.22,-104.8 693.54,-104.8"/>
<text text-anchor="start" x="700.54" y="-117" font-family="Arial" font-size="14.00">created_at </text>
<text text-anchor="start" x="770.59" y="-117" font-family="Arial" font-size="14.00" fill="#666666">[timestamp with time zone]</text>
<polygon fill="none" stroke="black" points="693.54,-74 693.54,-104.8 947.22,-104.8 947.22,-74 693.54,-74"/>
<text text-anchor="start" x="700.54" y="-86.2" font-family="Arial" font-size="14.00">updated_at </text>
<text text-anchor="start" x="774.5" y="-86.2" font-family="Arial" font-size="14.00" fill="#666666">[timestamp with time zone]</text>
</g>
<!-- public.alumnos_grupos&#45;&gt;public.grupos -->
<g id="edge2" class="edge">
<title>public.alumnos_grupos:grupo_id&#45;&gt;public.grupos:id</title>
<path fill="none" stroke="black" d="M806.2,-588.12C846.48,-578.77 819.18,-510.72 794.87,-466 769.1,-418.61 719.36,-446.56 693.54,-399.2 673.49,-362.44 650.67,-305 692.54,-305"/>
<polygon fill="black" stroke="black" points="806.14,-588.13 795.73,-584.69 800.84,-588.68 796.53,-589.13 796.53,-589.13 796.53,-589.13 800.84,-588.68 796.67,-593.64 806.14,-588.13"/>
<text text-anchor="start" x="802.87" y="-599.2" font-family="Arial" font-size="10.00">FOREIGN KEY (grupo_id) REFERENCES grupos(id) ON UPDATE CASCADE ON DELETE RESTRICT</text>
</g>
</g>
</svg>
