<?xml version="1.0" encoding="UTF-8" standalone="no"?>
<!DOCTYPE svg PUBLIC "-//W3C//DTD SVG 1.1//EN"
 "http://www.w3.org/Graphics/SVG/1.1/DTD/svg11.dtd">
<!-- Generated by graphviz version 12.1.2 (20240928.0832)
 -->
<!-- Title: public.alumnos Pages: 1 -->
<svg width="846pt" height="725pt"
 viewBox="0.00 0.00 846.07 725.20" xmlns="http://www.w3.org/2000/svg" xmlns:xlink="http://www.w3.org/1999/xlink">
<g id="graph0" class="graph" transform="scale(1 1) rotate(0) translate(4 721.2)">
<title>public.alumnos</title>
<polygon fill="white" stroke="none" points="-4,4 -4,-721.2 842.07,-721.2 842.07,4 -4,4"/>
<!-- public.alumnos -->
<g id="node1" class="node">
<title>public.alumnos</title>
<polygon fill="#efefef" stroke="none" points="69.85,-323.4 69.85,-359 323.53,-359 323.53,-323.4 69.85,-323.4"/>
<polygon fill="none" stroke="black" points="69.85,-323.4 69.85,-359 323.53,-359 323.53,-323.4 69.85,-323.4"/>
<text text-anchor="start" x="79.2" y="-336.8" font-family="Arial Bold" font-size="18.00">public.alumnos</text>
<text text-anchor="start" x="189.69" y="-336.8" font-family="Arial" font-size="14.00">    </text>
<text text-anchor="start" x="220.8" y="-336.8" font-family="Arial" font-size="14.00" fill="#666666">[BASE TABLE]</text>
<polygon fill="none" stroke="black" points="69.85,-292.6 69.85,-323.4 323.53,-323.4 323.53,-292.6 69.85,-292.6"/>
<text text-anchor="start" x="76.85" y="-304.8" font-family="Arial" font-size="14.00">id </text>
<text text-anchor="start" x="91.63" y="-304.8" font-family="Arial" font-size="14.00" fill="#666666">[integer]</text>
<polygon fill="none" stroke="black" points="69.85,-261.8 69.85,-292.6 323.53,-292.6 323.53,-261.8 69.85,-261.8"/>
<text text-anchor="start" x="76.85" y="-274" font-family="Arial" font-size="14.00">nombres </text>
<text text-anchor="start" x="135.21" y="-274" font-family="Arial" font-size="14.00" fill="#666666">[varchar(80)]</text>
<polygon fill="none" stroke="black" points="69.85,-231 69.85,-261.8 323.53,-261.8 323.53,-231 69.85,-231"/>
<text text-anchor="start" x="76.85" y="-243.2" font-family="Arial" font-size="14.00">primer_apellido </text>
<text text-anchor="start" x="176.45" y="-243.2" font-family="Arial" font-size="14.00" fill="#666666">[varchar(80)]</text>
<polygon fill="none" stroke="black" points="69.85,-200.2 69.85,-231 323.53,-231 323.53,-200.2 69.85,-200.2"/>
<text text-anchor="start" x="76.85" y="-212.4" font-family="Arial" font-size="14.00">segundo_apellido </text>
<text text-anchor="start" x="190.5" y="-212.4" font-family="Arial" font-size="14.00" fill="#666666">[varchar(80)]</text>
<polygon fill="none" stroke="black" points="69.85,-169.4 69.85,-200.2 323.53,-200.2 323.53,-169.4 69.85,-169.4"/>
<text text-anchor="start" x="76.85" y="-181.6" font-family="Arial" font-size="14.00">curp </text>
<text text-anchor="start" x="107.97" y="-181.6" font-family="Arial" font-size="14.00" fill="#666666">[character(18)]</text>
<polygon fill="none" stroke="black" points="69.85,-138.6 69.85,-169.4 323.53,-169.4 323.53,-138.6 69.85,-138.6"/>
<text text-anchor="start" x="76.85" y="-150.8" font-family="Arial" font-size="14.00">correo_institucional </text>
<text text-anchor="start" x="201.36" y="-150.8" font-family="Arial" font-size="14.00" fill="#666666">[varchar(120)]</text>
<polygon fill="none" stroke="black" points="69.85,-107.8 69.85,-138.6 323.53,-138.6 323.53,-107.8 69.85,-107.8"/>
<text text-anchor="start" x="76.85" y="-120" font-family="Arial" font-size="14.00">is_active </text>
<text text-anchor="start" x="135.21" y="-120" font-family="Arial" font-size="14.00" fill="#666666">[boolean]</text>
<polygon fill="none" stroke="black" points="69.85,-77 69.85,-107.8 323.53,-107.8 323.53,-77 69.85,-77"/>
<text text-anchor="start" x="76.85" y="-89.2" font-family="Arial" font-size="14.00">created_at </text>
<text text-anchor="start" x="146.89" y="-89.2" font-family="Arial" font-size="14.00" fill="#666666">[timestamp with time zone]</text>
<polygon fill="none" stroke="black" points="69.85,-46.2 69.85,-77 323.53,-77 323.53,-46.2 69.85,-46.2"/>
<text text-anchor="start" x="76.85" y="-58.4" font-family="Arial" font-size="14.00">updated_at </text>
<text text-anchor="start" x="150.8" y="-58.4" font-family="Arial" font-size="14.00" fill="#666666">[timestamp with time zone]</text>
<polygon fill="none" stroke="black" stroke-width="3" points="68.35,-44.7 68.35,-360.5 325.03,-360.5 325.03,-44.7 68.35,-44.7"/>
</g>
<!-- public.alumnos_grupos -->
<g id="node2" class="node">
<title>public.alumnos_grupos</title>
<polygon fill="#efefef" stroke="none" points="43.2,-638.4 43.2,-674 350.18,-674 350.18,-638.4 43.2,-638.4"/>
<polygon fill="none" stroke="black" points="43.2,-638.4 43.2,-674 350.18,-674 350.18,-638.4 43.2,-638.4"/>
<text text-anchor="start" x="50.2" y="-651.8" font-family="Arial Bold" font-size="18.00">public.alumnos_grupos</text>
<text text-anchor="start" x="218.69" y="-651.8" font-family="Arial" font-size="14.00">    </text>
<text text-anchor="start" x="249.8" y="-651.8" font-family="Arial" font-size="14.00" fill="#666666">[BASE TABLE]</text>
<polygon fill="none" stroke="black" points="43.2,-607.6 43.2,-638.4 350.18,-638.4 350.18,-607.6 43.2,-607.6"/>
<text text-anchor="start" x="50.2" y="-619.8" font-family="Arial" font-size="14.00">id </text>
<text text-anchor="start" x="64.99" y="-619.8" font-family="Arial" font-size="14.00" fill="#666666">[integer]</text>
<polygon fill="none" stroke="black" points="43.2,-576.8 43.2,-607.6 350.18,-607.6 350.18,-576.8 43.2,-576.8"/>
<text text-anchor="start" x="50.2" y="-589" font-family="Arial" font-size="14.00">alumno_id </text>
<text text-anchor="start" x="118.69" y="-589" font-family="Arial" font-size="14.00" fill="#666666">[integer]</text>
<polygon fill="none" stroke="black" points="43.2,-546 43.2,-576.8 350.18,-576.8 350.18,-546 43.2,-546"/>
<text text-anchor="start" x="50.2" y="-558.2" font-family="Arial" font-size="14.00">grupo_id </text>
<text text-anchor="start" x="108.58" y="-558.2" font-family="Arial" font-size="14.00" fill="#666666">[integer]</text>
<polygon fill="none" stroke="black" points="43.2,-515.2 43.2,-546 350.18,-546 350.18,-515.2 43.2,-515.2"/>
<text text-anchor="start" x="50.2" y="-527.4" font-family="Arial" font-size="14.00">is_active </text>
<text text-anchor="start" x="108.56" y="-527.4" font-family="Arial" font-size="14.00" fill="#666666">[boolean]</text>
<polygon fill="none" stroke="black" points="43.2,-484.4 43.2,-515.2 350.18,-515.2 350.18,-484.4 43.2,-484.4"/>
<text text-anchor="start" x="50.2" y="-496.6" font-family="Arial" font-size="14.00">created_at </text>
<text text-anchor="start" x="120.25" y="-496.6" font-family="Arial" font-size="14.00" fill="#666666">[timestamp with time zone]</text>
</g>
<!-- public.alumnos_grupos&#45;&gt;public.alumnos -->
<g id="edge1" class="edge">
<title>public.alumnos_grupos:alumno_id&#45;&gt;public.alumnos:id</title>
<path fill="none" stroke="black" d="M361.1,-589.57C411.47,-560.92 384.37,-308 324.53,-308"/>
<polygon fill="black" stroke="black" points="361.16,-589.55 350.34,-587.76 356.01,-590.92 351.82,-592.03 351.82,-592.03 351.82,-592.03 356.01,-590.92 352.65,-596.46 361.16,-589.55"/>
<text text-anchor="start" x="358.18" y="-602.2" font-family="Arial" font-size="10.00">FOREIGN KEY (alumno_id) REFERENCES alumnos(id) ON UPDATE CASCADE ON DELETE CASCADE</text>
</g>
</g>
</svg>
