<?xml version="1.0" encoding="UTF-8" standalone="no"?>
<!DOCTYPE svg PUBLIC "-//W3C//DTD SVG 1.1//EN"
 "http://www.w3.org/Graphics/SVG/1.1/DTD/svg11.dtd">
<!-- Generated by graphviz version 12.1.2 (20240928.0832)
 -->
<!-- Title: public.calificaciones Pages: 1 -->
<svg width="1422pt" height="879pt"
 viewBox="0.00 0.00 1422.08 879.20" xmlns="http://www.w3.org/2000/svg" xmlns:xlink="http://www.w3.org/1999/xlink">
<g id="graph0" class="graph" transform="scale(1 1) rotate(0) translate(4 875.2)">
<title>public.calificaciones</title>
<polygon fill="white" stroke="none" points="-4,4 -4,-875.2 1418.08,-875.2 1418.08,4 -4,4"/>
<!-- public.calificaciones -->
<g id="node1" class="node">
<title>public.calificaciones</title>
<polygon fill="#efefef" stroke="none" points="563.58,-789.4 563.58,-825 850.5,-825 850.5,-789.4 563.58,-789.4"/>
<polygon fill="none" stroke="black" points="563.58,-789.4 563.58,-825 850.5,-825 850.5,-789.4 563.58,-789.4"/>
<text text-anchor="start" x="570.58" y="-802.8" font-family="Arial Bold" font-size="18.00">public.calificaciones</text>
<text text-anchor="start" x="719.01" y="-802.8" font-family="Arial" font-size="14.00">    </text>
<text text-anchor="start" x="750.13" y="-802.8" font-family="Arial" font-size="14.00" fill="#666666">[BASE TABLE]</text>
<polygon fill="none" stroke="black" points="563.58,-758.6 563.58,-789.4 850.5,-789.4 850.5,-758.6 563.58,-758.6"/>
<text text-anchor="start" x="570.58" y="-770.8" font-family="Arial" font-size="14.00">id </text>
<text text-anchor="start" x="585.37" y="-770.8" font-family="Arial" font-size="14.00" fill="#666666">[integer]</text>
<polygon fill="none" stroke="black" points="563.58,-727.8 563.58,-758.6 850.5,-758.6 850.5,-727.8 563.58,-727.8"/>
<text text-anchor="start" x="570.58" y="-740" font-family="Arial" font-size="14.00">alumno_id </text>
<text text-anchor="start" x="639.07" y="-740" font-family="Arial" font-size="14.00" fill="#666666">[integer]</text>
<polygon fill="none" stroke="black" points="563.58,-697 563.58,-727.8 850.5,-727.8 850.5,-697 563.58,-697"/>
<text text-anchor="start" x="570.58" y="-709.2" font-family="Arial" font-size="14.00">grupo_id </text>
<text text-anchor="start" x="628.96" y="-709.2" font-family="Arial" font-size="14.00" fill="#666666">[integer]</text>
<polygon fill="none" stroke="black" points="563.58,-666.2 563.58,-697 850.5,-697 850.5,-666.2 563.58,-666.2"/>
<text text-anchor="start" x="570.58" y="-678.4" font-family="Arial" font-size="14.00">materia_id </text>
<text text-anchor="start" x="639.84" y="-678.4" font-family="Arial" font-size="14.00" fill="#666666">[integer]</text>
<polygon fill="none" stroke="black" points="563.58,-635.4 563.58,-666.2 850.5,-666.2 850.5,-635.4 563.58,-635.4"/>
<text text-anchor="start" x="570.58" y="-647.6" font-family="Arial" font-size="14.00">calificacion </text>
<text text-anchor="start" x="642.95" y="-647.6" font-family="Arial" font-size="14.00" fill="#666666">[numeric(5,2)]</text>
<polygon fill="none" stroke="black" points="563.58,-604.6 563.58,-635.4 850.5,-635.4 850.5,-604.6 563.58,-604.6"/>
<text text-anchor="start" x="570.58" y="-616.8" font-family="Arial" font-size="14.00">registrado_por </text>
<text text-anchor="start" x="664.75" y="-616.8" font-family="Arial" font-size="14.00" fill="#666666">[integer]</text>
<polygon fill="none" stroke="black" points="563.58,-573.8 563.58,-604.6 850.5,-604.6 850.5,-573.8 563.58,-573.8"/>
<text text-anchor="start" x="570.58" y="-586" font-family="Arial" font-size="14.00">is_active </text>
<text text-anchor="start" x="628.94" y="-586" font-family="Arial" font-size="14.00" fill="#666666">[boolean]</text>
<polygon fill="none" stroke="black" points="563.58,-543 563.58,-573.8 850.5,-573.8 850.5,-543 563.58,-543"/>
<text text-anchor="start" x="570.58" y="-555.2" font-family="Arial" font-size="14.00">created_at </text>
<text text-anchor="start" x="640.63" y="-555.2" font-family="Arial" font-size="14.00" fill="#666666">[timestamp with time zone]</text>
<polygon fill="none" stroke="black" points="563.58,-512.2 563.58,-543 850.5,-543 850.5,-512.2 563.58,-512.2"/>
<text text-anchor="start" x="570.58" y="-524.4" font-family="Arial" font-size="14.00">updated_at </text>
<text text-anchor="start" x="644.54" y="-524.4" font-family="Arial" font-size="14.00" fill="#666666">[timestamp with time zone]</text>
<polygon fill="none" stroke="black" stroke-width="3" points="562.08,-510.7 562.08,-826.5 852,-826.5 852,-510.7 562.08,-510.7"/>
</g>
<!-- public.alumnos -->
<g id="node2" class="node">
<title>public.alumnos</title>
<polygon fill="#efefef" stroke="none" points="43.2,-335.8 43.2,-371.4 296.88,-371.4 296.88,-335.8 43.2,-335.8"/>
<polygon fill="none" stroke="black" points="43.2,-335.8 43.2,-371.4 296.88,-371.4 296.88,-335.8 43.2,-335.8"/>
<text text-anchor="start" x="52.55" y="-349.2" font-family="Arial Bold" font-size="18.00">public.alumnos</text>
<text text-anchor="start" x="163.04" y="-349.2" font-family="Arial" font-size="14.00">    </text>
<text text-anchor="start" x="194.16" y="-349.2" font-family="Arial" font-size="14.00" fill="#666666">[BASE TABLE]</text>
<polygon fill="none" stroke="black" points="43.2,-305 43.2,-335.8 296.88,-335.8 296.88,-305 43.2,-305"/>
<text text-anchor="start" x="50.2" y="-317.2" font-family="Arial" font-size="14.00">id </text>
<text text-anchor="start" x="64.99" y="-317.2" font-family="Arial" font-size="14.00" fill="#666666">[integer]</text>
<polygon fill="none" stroke="black" points="43.2,-274.2 43.2,-305 296.88,-305 296.88,-274.2 43.2,-274.2"/>
<text text-anchor="start" x="50.2" y="-286.4" font-family="Arial" font-size="14.00">nombres </text>
<text text-anchor="start" x="108.56" y="-286.4" font-family="Arial" font-size="14.00" fill="#666666">[varchar(80)]</text>
<polygon fill="none" stroke="black" points="43.2,-243.4 43.2,-274.2 296.88,-274.2 296.88,-243.4 43.2,-243.4"/>
<text text-anchor="start" x="50.2" y="-255.6" font-family="Arial" font-size="14.00">primer_apellido </text>
<text text-anchor="start" x="149.81" y="-255.6" font-family="Arial" font-size="14.00" fill="#666666">[varchar(80)]</text>
<polygon fill="none" stroke="black" points="43.2,-212.6 43.2,-243.4 296.88,-243.4 296.88,-212.6 43.2,-212.6"/>
<text text-anchor="start" x="50.2" y="-224.8" font-family="Arial" font-size="14.00">segundo_apellido </text>
<text text-anchor="start" x="163.85" y="-224.8" font-family="Arial" font-size="14.00" fill="#666666">[varchar(80)]</text>
<polygon fill="none" stroke="black" points="43.2,-181.8 43.2,-212.6 296.88,-212.6 296.88,-181.8 43.2,-181.8"/>
<text text-anchor="start" x="50.2" y="-194" font-family="Arial" font-size="14.00">curp </text>
<text text-anchor="start" x="81.32" y="-194" font-family="Arial" font-size="14.00" fill="#666666">[character(18)]</text>
<polygon fill="none" stroke="black" points="43.2,-151 43.2,-181.8 296.88,-181.8 296.88,-151 43.2,-151"/>
<text text-anchor="start" x="50.2" y="-163.2" font-family="Arial" font-size="14.00">correo_institucional </text>
<text text-anchor="start" x="174.71" y="-163.2" font-family="Arial" font-size="14.00" fill="#666666">[varchar(120)]</text>
<polygon fill="none" stroke="black" points="43.2,-120.2 43.2,-151 296.88,-151 296.88,-120.2 43.2,-120.2"/>
<text text-anchor="start" x="50.2" y="-132.4" font-family="Arial" font-size="14.00">is_active </text>
<text text-anchor="start" x="108.56" y="-132.4" font-family="Arial" font-size="14.00" fill="#666666">[boolean]</text>
<polygon fill="none" stroke="black" points="43.2,-89.4 43.2,-120.2 296.88,-120.2 296.88,-89.4 43.2,-89.4"/>
<text text-anchor="start" x="50.2" y="-101.6" font-family="Arial" font-size="14.00">created_at </text>
<text text-anchor="start" x="120.25" y="-101.6" font-family="Arial" font-size="14.00" fill="#666666">[timestamp with time zone]</text>
<polygon fill="none" stroke="black" points="43.2,-58.6 43.2,-89.4 296.88,-89.4 296.88,-58.6 43.2,-58.6"/>
<text text-anchor="start" x="50.2" y="-70.8" font-family="Arial" font-size="14.00">updated_at </text>
<text text-anchor="start" x="124.16" y="-70.8" font-family="Arial" font-size="14.00" fill="#666666">[timestamp with time zone]</text>
</g>
<!-- public.calificaciones&#45;&gt;public.alumnos -->
<g id="edge1" class="edge">
<title>public.calificaciones:alumno_id&#45;&gt;public.alumnos:id</title>
<path fill="none" stroke="black" d="M552.47,-742.99C395.63,-736.37 430.69,-573.41 349.04,-430 322.44,-383.28 351.64,-320.4 297.88,-320.4"/>
<polygon fill="black" stroke="black" points="552.25,-742.99 562.15,-747.69 557.58,-743.1 561.91,-743.19 561.91,-743.19 561.91,-743.19 557.58,-743.1 562.34,-738.69 552.25,-742.99"/>
<text text-anchor="start" x="82.69" y="-753.2" font-family="Arial" font-size="10.00">FOREIGN KEY (alumno_id) REFERENCES alumnos(id) ON UPDATE CASCADE ON DELETE CASCADE</text>
</g>
<!-- public.grupos -->
<g id="node3" class="node">
<title>public.grupos</title>
<polygon fill="#efefef" stroke="none" points="401.2,-320.4 401.2,-356 654.88,-356 654.88,-320.4 401.2,-320.4"/>
<polygon fill="none" stroke="black" points="401.2,-320.4 401.2,-356 654.88,-356 654.88,-320.4 401.2,-320.4"/>
<text text-anchor="start" x="416.55" y="-333.8" font-family="Arial Bold" font-size="18.00">public.grupos</text>
<text text-anchor="start" x="515.04" y="-333.8" font-family="Arial" font-size="14.00">    </text>
<text text-anchor="start" x="546.16" y="-333.8" font-family="Arial" font-size="14.00" fill="#666666">[BASE TABLE]</text>
<polygon fill="none" stroke="black" points="401.2,-289.6 401.2,-320.4 654.88,-320.4 654.88,-289.6 401.2,-289.6"/>
<text text-anchor="start" x="408.2" y="-301.8" font-family="Arial" font-size="14.00">id </text>
<text text-anchor="start" x="422.99" y="-301.8" font-family="Arial" font-size="14.00" fill="#666666">[integer]</text>
<polygon fill="none" stroke="black" points="401.2,-258.8 401.2,-289.6 654.88,-289.6 654.88,-258.8 401.2,-258.8"/>
<text text-anchor="start" x="408.2" y="-271" font-family="Arial" font-size="14.00">clave </text>
<text text-anchor="start" x="444.77" y="-271" font-family="Arial" font-size="14.00" fill="#666666">[varchar(20)]</text>
<polygon fill="none" stroke="black" points="401.2,-228 401.2,-258.8 654.88,-258.8 654.88,-228 401.2,-228"/>
<text text-anchor="start" x="408.2" y="-240.2" font-family="Arial" font-size="14.00">nombre </text>
<text text-anchor="start" x="459.56" y="-240.2" font-family="Arial" font-size="14.00" fill="#666666">[varchar(120)]</text>
<polygon fill="none" stroke="black" points="401.2,-197.2 401.2,-228 654.88,-228 654.88,-197.2 401.2,-197.2"/>
<text text-anchor="start" x="408.2" y="-209.4" font-family="Arial" font-size="14.00">plan_estudio_id </text>
<text text-anchor="start" x="510.17" y="-209.4" font-family="Arial" font-size="14.00" fill="#666666">[integer]</text>
<polygon fill="none" stroke="black" points="401.2,-166.4 401.2,-197.2 654.88,-197.2 654.88,-166.4 401.2,-166.4"/>
<text text-anchor="start" x="408.2" y="-178.6" font-family="Arial" font-size="14.00">plantel_id </text>
<text text-anchor="start" x="472.03" y="-178.6" font-family="Arial" font-size="14.00" fill="#666666">[integer]</text>
<polygon fill="none" stroke="black" points="401.2,-135.6 401.2,-166.4 654.88,-166.4 654.88,-135.6 401.2,-135.6"/>
<text text-anchor="start" x="408.2" y="-147.8" font-family="Arial" font-size="14.00">is_active </text>
<text text-anchor="start" x="466.56" y="-147.8" font-family="Arial" font-size="14.00" fill="#666666">[boolean]</text>
<polygon fill="none" stroke="black" points="401.2,-104.8 401.2,-135.6 654.88,-135.6 654.88,-104.8 401.2,-104.8"/>
<text text-anchor="start" x="408.2" y="-117" font-family="Arial" font-size="14.00">created_at </text>
<text text-anchor="start" x="478.25" y="-117" font-family="Arial" font-size="14.00" fill="#666666">[timestamp with time zone]</text>
<polygon fill="none" stroke="black" points="401.2,-74 401.2,-104.8 654.88,-104.8 654.88,-74 401.2,-74"/>
<text text-anchor="start" x="408.2" y="-86.2" font-family="Arial" font-size="14.00">updated_at </text>
<text text-anchor="start" x="482.16" y="-86.2" font-family="Arial" font-size="14.00" fill="#666666">[timestamp with time zone]</text>
</g>
<!-- public.calificaciones&#45;&gt;public.grupos -->
<g id="edge2" class="edge">
<title>public.calificaciones:grupo_id&#45;&gt;public.grupos:id</title>
<path fill="none" stroke="black" d="M552.23,-711.92C457.09,-702.57 515.48,-560.32 563.58,-466 586.42,-421.21 631.89,-443.92 654.88,-399.2 674.03,-361.96 697.75,-305 655.88,-305"/>
<polygon fill="black" stroke="black" points="552.26,-711.92 562.04,-716.88 557.59,-712.17 561.91,-712.37 561.91,-712.37 561.91,-712.37 557.59,-712.17 562.46,-707.89 552.26,-711.92"/>
<text text-anchor="start" x="95.48" y="-722.4" font-family="Arial" font-size="10.00">FOREIGN KEY (grupo_id) REFERENCES grupos(id) ON UPDATE CASCADE ON DELETE RESTRICT</text>
</g>
<!-- public.materias -->
<g id="node4" class="node">
<title>public.materias</title>
<polygon fill="#efefef" stroke="none" points="759.2,-335.8 759.2,-371.4 1012.88,-371.4 1012.88,-335.8 759.2,-335.8"/>
<polygon fill="none" stroke="black" points="759.2,-335.8 759.2,-371.4 1012.88,-371.4 1012.88,-335.8 759.2,-335.8"/>
<text text-anchor="start" x="768.57" y="-349.2" font-family="Arial Bold" font-size="18.00">public.materias</text>
<text text-anchor="start" x="879.03" y="-349.2" font-family="Arial" font-size="14.00">    </text>
<text text-anchor="start" x="910.14" y="-349.2" font-family="Arial" font-size="14.00" fill="#666666">[BASE TABLE]</text>
<polygon fill="none" stroke="black" points="759.2,-305 759.2,-335.8 1012.88,-335.8 1012.88,-305 759.2,-305"/>
<text text-anchor="start" x="766.2" y="-317.2" font-family="Arial" font-size="14.00">id </text>
<text text-anchor="start" x="780.99" y="-317.2" font-family="Arial" font-size="14.00" fill="#666666">[integer]</text>
<polygon fill="none" stroke="black" points="759.2,-274.2 759.2,-305 1012.88,-305 1012.88,-274.2 759.2,-274.2"/>
<text text-anchor="start" x="766.2" y="-286.4" font-family="Arial" font-size="14.00">nombre </text>
<text text-anchor="start" x="817.56" y="-286.4" font-family="Arial" font-size="14.00" fill="#666666">[varchar(120)]</text>
<polygon fill="none" stroke="black" points="759.2,-243.4 759.2,-274.2 1012.88,-274.2 1012.88,-243.4 759.2,-243.4"/>
<text text-anchor="start" x="766.2" y="-255.6" font-family="Arial" font-size="14.00">clave </text>
<text text-anchor="start" x="802.77" y="-255.6" font-family="Arial" font-size="14.00" fill="#666666">[varchar(20)]</text>
<polygon fill="none" stroke="black" points="759.2,-212.6 759.2,-243.4 1012.88,-243.4 1012.88,-212.6 759.2,-212.6"/>
<text text-anchor="start" x="766.2" y="-224.8" font-family="Arial" font-size="14.00">creditos </text>
<text text-anchor="start" x="819.11" y="-224.8" font-family="Arial" font-size="14.00" fill="#666666">[numeric(5,2)]</text>
<polygon fill="none" stroke="black" points="759.2,-181.8 759.2,-212.6 1012.88,-212.6 1012.88,-181.8 759.2,-181.8"/>
<text text-anchor="start" x="766.2" y="-194" font-family="Arial" font-size="14.00">cuatrimestre </text>
<text text-anchor="start" x="847.11" y="-194" font-family="Arial" font-size="14.00" fill="#666666">[integer]</text>
<polygon fill="none" stroke="black" points="759.2,-151 759.2,-181.8 1012.88,-181.8 1012.88,-151 759.2,-151"/>
<text text-anchor="start" x="766.2" y="-163.2" font-family="Arial" font-size="14.00">plan_estudio_id </text>
<text text-anchor="start" x="868.17" y="-163.2" font-family="Arial" font-size="14.00" fill="#666666">[integer]</text>
<polygon fill="none" stroke="black" points="759.2,-120.2 759.2,-151 1012.88,-151 1012.88,-120.2 759.2,-120.2"/>
<text text-anchor="start" x="766.2" y="-132.4" font-family="Arial" font-size="14.00">is_active </text>
<text text-anchor="start" x="824.56" y="-132.4" font-family="Arial" font-size="14.00" fill="#666666">[boolean]</text>
<polygon fill="none" stroke="black" points="759.2,-89.4 759.2,-120.2 1012.88,-120.2 1012.88,-89.4 759.2,-89.4"/>
<text text-anchor="start" x="766.2" y="-101.6" font-family="Arial" font-size="14.00">created_at </text>
<text text-anchor="start" x="836.25" y="-101.6" font-family="Arial" font-size="14.00" fill="#666666">[timestamp with time zone]</text>
<polygon fill="none" stroke="black" points="759.2,-58.6 759.2,-89.4 1012.88,-89.4 1012.88,-58.6 759.2,-58.6"/>
<text text-anchor="start" x="766.2" y="-70.8" font-family="Arial" font-size="14.00">updated_at </text>
<text text-anchor="start" x="840.16" y="-70.8" font-family="Arial" font-size="14.00" fill="#666666">[timestamp with time zone]</text>
</g>
<!-- public.calificaciones&#45;&gt;public.materias -->
<g id="edge3" class="edge">
<title>public.calificaciones:materia_id&#45;&gt;public.materias:id</title>
<path fill="none" stroke="black" d="M861.83,-681.03C943.65,-671.54 897.2,-545.47 850.5,-466 826.91,-425.85 782.91,-454.68 759.2,-414.6 737.88,-378.57 716.33,-320.4 758.2,-320.4"/>
<polygon fill="black" stroke="black" points="861.82,-681.03 851.59,-677.09 856.49,-681.33 852.17,-681.56 852.17,-681.56 852.17,-681.56 856.49,-681.33 852.08,-686.07 861.82,-681.03"/>
<text text-anchor="start" x="858.5" y="-691.6" font-family="Arial" font-size="10.00">FOREIGN KEY (materia_id) REFERENCES materias(id) ON UPDATE CASCADE ON DELETE RESTRICT</text>
</g>
<!-- public.usuarios -->
<g id="node5" class="node">
<title>public.usuarios</title>
<polygon fill="#efefef" stroke="none" points="1117.2,-351.2 1117.2,-386.8 1370.88,-386.8 1370.88,-351.2 1117.2,-351.2"/>
<polygon fill="none" stroke="black" points="1117.2,-351.2 1117.2,-386.8 1370.88,-386.8 1370.88,-351.2 1117.2,-351.2"/>
<text text-anchor="start" x="1127.05" y="-364.6" font-family="Arial Bold" font-size="18.00">public.usuarios</text>
<text text-anchor="start" x="1236.54" y="-364.6" font-family="Arial" font-size="14.00">    </text>
<text text-anchor="start" x="1267.66" y="-364.6" font-family="Arial" font-size="14.00" fill="#666666">[BASE TABLE]</text>
<polygon fill="none" stroke="black" points="1117.2,-320.4 1117.2,-351.2 1370.88,-351.2 1370.88,-320.4 1117.2,-320.4"/>
<text text-anchor="start" x="1124.2" y="-332.6" font-family="Arial" font-size="14.00">id </text>
<text text-anchor="start" x="1138.99" y="-332.6" font-family="Arial" font-size="14.00" fill="#666666">[integer]</text>
<polygon fill="none" stroke="black" points="1117.2,-289.6 1117.2,-320.4 1370.88,-320.4 1370.88,-289.6 1117.2,-289.6"/>
<text text-anchor="start" x="1124.2" y="-301.8" font-family="Arial" font-size="14.00">nombre </text>
<text text-anchor="start" x="1175.56" y="-301.8" font-family="Arial" font-size="14.00" fill="#666666">[varchar(100)]</text>
<polygon fill="none" stroke="black" points="1117.2,-258.8 1117.2,-289.6 1370.88,-289.6 1370.88,-258.8 1117.2,-258.8"/>
<text text-anchor="start" x="1124.2" y="-271" font-family="Arial" font-size="14.00">apellido </text>
<text text-anchor="start" x="1176.35" y="-271" font-family="Arial" font-size="14.00" fill="#666666">[varchar(100)]</text>
<polygon fill="none" stroke="black" points="1117.2,-228 1117.2,-258.8 1370.88,-258.8 1370.88,-228 1117.2,-228"/>
<text text-anchor="start" x="1124.2" y="-240.2" font-family="Arial" font-size="14.00">email </text>
<text text-anchor="start" x="1161.54" y="-240.2" font-family="Arial" font-size="14.00" fill="#666666">[varchar(150)]</text>
<polygon fill="none" stroke="black" points="1117.2,-197.2 1117.2,-228 1370.88,-228 1370.88,-197.2 1117.2,-197.2"/>
<text text-anchor="start" x="1124.2" y="-209.4" font-family="Arial" font-size="14.00">password_hash </text>
<text text-anchor="start" x="1226.15" y="-209.4" font-family="Arial" font-size="14.00" fill="#666666">[varchar(255)]</text>
<polygon fill="none" stroke="black" points="1117.2,-166.4 1117.2,-197.2 1370.88,-197.2 1370.88,-166.4 1117.2,-166.4"/>
<text text-anchor="start" x="1124.2" y="-178.6" font-family="Arial" font-size="14.00">rol_id </text>
<text text-anchor="start" x="1162.33" y="-178.6" font-family="Arial" font-size="14.00" fill="#666666">[integer]</text>
<polygon fill="none" stroke="black" points="1117.2,-135.6 1117.2,-166.4 1370.88,-166.4 1370.88,-135.6 1117.2,-135.6"/>
<text text-anchor="start" x="1124.2" y="-147.8" font-family="Arial" font-size="14.00">plantel_id </text>
<text text-anchor="start" x="1188.03" y="-147.8" font-family="Arial" font-size="14.00" fill="#666666">[integer]</text>
<polygon fill="none" stroke="black" points="1117.2,-104.8 1117.2,-135.6 1370.88,-135.6 1370.88,-104.8 1117.2,-104.8"/>
<text text-anchor="start" x="1124.2" y="-117" font-family="Arial" font-size="14.00">is_active </text>
<text text-anchor="start" x="1182.56" y="-117" font-family="Arial" font-size="14.00" fill="#666666">[boolean]</text>
<polygon fill="none" stroke="black" points="1117.2,-74 1117.2,-104.8 1370.88,-104.8 1370.88,-74 1117.2,-74"/>
<text text-anchor="start" x="1124.2" y="-86.2" font-family="Arial" font-size="14.00">created_at </text>
<text text-anchor="start" x="1194.25" y="-86.2" font-family="Arial" font-size="14.00" fill="#666666">[timestamp with time zone]</text>
<polygon fill="none" stroke="black" points="1117.2,-43.2 1117.2,-74 1370.88,-74 1370.88,-43.2 1117.2,-43.2"/>
<text text-anchor="start" x="1124.2" y="-55.4" font-family="Arial" font-size="14.00">updated_at </text>
<text text-anchor="start" x="1198.16" y="-55.4" font-family="Arial" font-size="14.00" fill="#666666">[timestamp with time zone]</text>
</g>
<!-- public.calificaciones&#45;&gt;public.usuarios -->
<g id="edge4" class="edge">
<title>public.calificaciones:registrado_por&#45;&gt;public.usuarios:id</title>
<path fill="none" stroke="black" d="M861.66,-619.8C979,-615.05 988.25,-526.81 1065.04,-430 1094.65,-392.67 1068.56,-335.8 1116.2,-335.8"/>
<polygon fill="black" stroke="black" points="861.83,-619.8 851.75,-615.49 856.5,-619.9 852.17,-619.99 852.17,-619.99 852.17,-619.99 856.5,-619.9 851.92,-624.49 861.83,-619.8"/>
<text text-anchor="start" x="858.5" y="-630" font-family="Arial" font-size="10.00">FOREIGN KEY (registrado_por) REFERENCES usuarios(id) ON UPDATE CASCADE ON DELETE SET NULL</text>
</g>
</g>
</svg>
